<?xml version="1.0" encoding="utf-8"?>
<!-- Generator: Adobe Illustrator 22.0.1, SVG Export Plug-In . SVG Version: 6.00 Build 0)  -->
<svg version="1.1" id="圖層_1" xmlns="http://www.w3.org/2000/svg" xmlns:xlink="http://www.w3.org/1999/xlink" x="0px" y="0px"
	 viewBox="0 0 16 16" style="enable-background:new 0 0 16 16;" xml:space="preserve">
<g>
	<path d="M14.4,7.9L14.4,7.9c0.2-1.7-0.9-3.3-2.6-3.4c-1.5-0.2-3,0.9-3.3,2.4c-0.3,1.7,0.9,3.2,2.6,3.4C12.7,10.5,14.1,9.4,14.4,7.9
		C14.4,7.9,14.4,7.9,14.4,7.9z M10.9,9.9c-1.4-0.3-2.2-1.7-2-3.1c0.3-1.5,1.9-2.6,3.4-2c1.3,0.5,2,1.7,1.8,3
		C13.8,9.3,12.4,10.3,10.9,9.9z"/>
	<path d="M7.6,6.4L7.6,6.4C7.8,4.7,6.7,3.1,4.9,3c-1.5-0.2-3,0.9-3.3,2.4C1.4,7,2.6,8.6,4.3,8.8C5.8,9,7.2,7.9,7.6,6.4
		C7.6,6.4,7.6,6.4,7.6,6.4z M4,8.5C2.6,8.1,1.8,6.7,2,5.4c0.3-1.5,1.9-2.6,3.4-2c1.3,0.5,2,1.7,1.8,3C6.9,7.8,5.5,8.8,4,8.5z"/>
	<path d="M8.2,10.3c-0.1-0.1-0.2-0.1-0.4-0.2C7.6,10,7.4,10,7.1,9.9c-0.1,0-0.2,0-0.3,0C6.8,10,6.8,10,6.8,10c0,0,0,0.1,0.1,0.1
		c0.1,0,0.2,0.1,0.3,0.1l0.1,0c0.1,0,0.2,0.1,0.4,0.1c0.1,0,0.2,0.1,0.3,0.1c0,0,0,0,0.1,0c0,0,0.1,0,0.1,0
		C8.2,10.4,8.2,10.4,8.2,10.3z"/>
	<path d="M14.7,8.5c-0.1,0-0.1,0-0.1,0.1c-0.1,0.1-0.8,0.6-1.1,0.8c-0.3,0.2-0.8,0.5-0.8,0.5l-0.5,0.2l0.4,0c0,0,0.4-0.1,0.6-0.2
		C13.3,9.8,14.7,9.1,14.7,8.5C14.7,8.6,14.7,8.5,14.7,8.5z"/>
	<path d="M4.8,5.9c0,0.2-0.3,0.4-0.5,0.4C4.1,6.2,3.9,6,4,5.7c0-0.2,0.3-0.3,0.5-0.3C4.7,5.5,4.8,5.7,4.8,5.9z"/>
	<path d="M11.8,7.2c0,0.2-0.3,0.4-0.5,0.4c-0.2,0-0.4-0.3-0.3-0.6c0-0.2,0.3-0.3,0.5-0.3C11.6,6.7,11.8,7,11.8,7.2z"/>
</g>
</svg>
